<svg width="512" height="512" version="1.1" xmlns="http://www.w3.org/2000/svg"><path fill="rgb(0,0,0)" stroke="rgb(0,0,0)" stroke-width="1" opacity="0.7764705882352941" d="M 308.5 78 L 322.5 84 L 326 84 L 327 87.5 L 301 158.5 L 301 161.5 L 297 169.5 L 293 184.5 L 291 186.5 L 287 201.5 L 283 209.5 L 281 218.5 L 266 257.5 L 264 266.5 L 260 274.5 L 258 283.5 L 254 291.5 L 252 300.5 L 248 308.5 L 246 317.5 L 242 325.5 L 240 334.5 L 223 379.5 L 217 399.5 L 213 407.5 L 209 422.5 L 203.5 434 L 189.5 428 L 186 428 L 185 424.5 L 205 370.5 L 205 367.5 L 209 359.5 L 211 350.5 L 215 342.5 L 219 327.5 L 221 325.5 L 225 310.5 L 229 302.5 L 231 293.5 L 246 254.5 L 248 245.5 L 252 237.5 L 254 228.5 L 258 220.5 L 260 211.5 L 264 203.5 L 268 188.5 L 270 186.5 L 270 183.5 L 289 132.5 L 289 129.5 L 293 121.5 L 297 106.5 L 299 104.5 L 303 89.5 L 308.5 78 Z M 308 80 L 308 84 L 306 86 L 304 95 L 302 97 L 302 101 L 300 103 L 300 106 L 289 134 L 289 137 L 287 139 L 283 154 L 281 156 L 281 160 L 279 162 L 277 171 L 275 173 L 273 183 L 271 185 L 269 194 L 267 196 L 265 206 L 263 208 L 261 217 L 259 219 L 257 228 L 246 256 L 246 259 L 242 267 L 242 270 L 240 272 L 240 276 L 238 278 L 238 282 L 236 284 L 234 293 L 232 295 L 232 299 L 230 301 L 228 310 L 226 312 L 224 322 L 222 324 L 220 333 L 218 335 L 218 339 L 216 341 L 214 350 L 201 383 L 193 409 L 191 411 L 191 415 L 189 417 L 189 421 Q 186 421 187 426 L 204 432 L 204 429 L 206 427 L 208 418 L 210 416 L 210 412 L 212 410 L 212 407 L 223 379 L 223 376 L 225 374 L 229 359 L 231 357 L 231 353 L 233 351 L 235 342 L 237 340 L 239 330 L 241 328 L 243 319 L 245 317 L 247 307 L 249 305 L 251 296 L 253 294 L 255 285 L 270 246 L 270 243 L 272 241 L 272 237 L 274 235 L 274 231 L 276 229 L 278 220 L 280 218 L 282 208 L 286 201 L 288 191 L 290 189 L 292 180 L 294 178 L 294 174 L 296 172 L 298 163 L 311 130 L 319 104 L 321 102 L 321 98 L 323 96 L 323 92 Q 326 91 325 87 L 308 80 Z " /><path fill="rgb(0,0,0)" stroke="rgb(0,0,0)" stroke-width="1" opacity="0.7764705882352941" d="M 101.5 137 L 113 145 Q 111.9 147.7 114.5 147 Q 117.5 147.5 117 151.5 L 86 187.5 L 78 199 Q 75.3 197.9 76 200.5 L 68 211 Q 65.3 209.9 66 212.5 L 31 253.5 L 30 256.5 L 72 306.5 L 76 313 Q 78.7 311.9 78 314.5 L 113 355.5 L 117 360.5 L 117 362.5 L 113 365 Q 114.1 367.7 111.5 367 L 101.5 375 L 8 264.5 L 2 255.5 L 101.5 137 Z M 102 138 L 62 186 Q 63 188 60 187 L 60 189 L 58 189 L 56 194 L 29 225 Q 30 227 27 226 Q 25 233 19 237 Q 20 239 17 238 L 15 242 Q 16 244 13 243 L 4 256 L 5 259 L 13 268 Q 12 270 15 269 L 17 273 Q 16 275 19 274 L 27 285 Q 26 287 29 286 L 58 322 Q 57 324 60 323 L 60 325 L 62 325 L 70 337 L 102 374 L 109 368 Q 111 369 110 366 L 116 362 L 108 353 Q 109 350 106 351 L 79 318 Q 80 315 77 316 L 69 306 Q 70 303 67 304 L 63 299 Q 64 296 61 297 L 38 269 Q 39 266 36 267 L 28 257 L 36 247 Q 35 244 38 245 L 61 217 Q 60 214 63 215 L 67 210 Q 66 207 69 208 Q 71 201 77 198 Q 76 195 79 196 L 81 192 L 106 163 Q 105 160 108 161 L 112 155 L 116 151 L 112 146 Q 109 147 110 144 L 102 138 Z " /><path fill="rgb(0,0,0)" stroke="rgb(0,0,0)" stroke-width="1" opacity="0.7764705882352941" d="M 409.5 137 L 416 142.5 L 504 247.5 L 510 256.5 L 410.5 375 L 395 362.5 L 395 360.5 L 399 355.5 L 481 258.5 L 482 255.5 L 399 156.5 L 395 151.5 L 395 149.5 L 409.5 137 Z M 411 138 L 404 144 Q 401 143 402 146 L 396 151 L 404 160 Q 403 162 406 161 L 414 173 L 443 207 Q 442 209 445 208 L 474 244 Q 473 246 476 245 L 484 256 L 476 266 Q 477 268 474 267 L 470 274 L 445 303 Q 446 305 443 304 L 441 309 L 406 350 Q 407 352 404 351 L 400 358 L 396 362 L 401 366 Q 403 365 402 368 L 409 372 L 411 374 Q 410 371 413 372 L 415 368 L 452 325 Q 451 322 454 323 Q 456 316 462 313 Q 461 310 464 311 L 466 308 Q 465 305 468 306 L 483 288 Q 482 285 485 286 L 493 276 Q 492 273 495 274 L 497 271 Q 496 268 499 269 L 503 264 Q 502 261 505 262 L 508 257 L 505 252 Q 506 249 503 250 L 499 245 Q 500 242 497 243 L 495 240 Q 496 237 493 238 L 485 228 Q 486 225 483 226 L 468 208 Q 469 205 466 206 L 464 203 Q 465 200 462 201 L 454 191 Q 455 188 452 189 L 413 142 Q 414 139 411 140 L 411 138 Z " /><path fill="rgb(0,0,0)" stroke="rgb(0,0,0)" stroke-width="1" opacity="0" d="M 0 0 L 512 0 L 512 512 L 0 512 L 0 0 Z M 309 78 L 303 90 L 299 105 L 297 107 L 293 122 L 289 130 L 289 133 L 270 184 L 270 187 L 268 189 L 264 204 L 260 212 L 258 221 L 254 229 L 252 238 L 248 246 L 246 255 L 231 294 L 229 303 L 225 311 L 221 326 L 219 328 L 215 343 L 211 351 L 209 360 L 205 368 L 205 371 L 185 425 L 186 428 L 190 428 L 204 434 L 209 423 L 213 408 L 217 400 L 223 380 L 240 335 L 242 326 L 246 318 L 248 309 L 252 301 L 254 292 L 258 284 L 260 275 L 264 267 L 266 258 L 281 219 L 283 210 L 287 202 L 291 187 L 293 185 L 297 170 L 301 162 L 301 159 L 327 88 L 326 84 L 323 84 L 309 78 Z M 102 137 L 2 256 L 8 265 L 102 375 L 112 367 Q 114 368 113 365 L 117 363 L 117 361 L 113 356 L 78 315 Q 79 312 76 313 L 72 307 L 30 257 L 31 254 L 66 213 Q 65 210 68 211 L 76 201 Q 75 198 78 199 L 86 188 L 117 152 Q 118 148 115 147 Q 112 148 113 145 L 102 137 Z M 410 137 L 395 150 L 395 152 L 399 157 L 482 256 L 481 259 L 399 356 L 395 361 L 395 363 L 411 375 L 510 257 L 504 248 L 416 143 L 410 137 Z " /><path fill="rgb(0,0,0)" stroke="rgb(0,0,0)" stroke-width="1" opacity="0.996078431372549" d="M 308 80 L 325 86.5 Q 325.8 90.8 323 91.5 L 323 95.5 L 321 97.5 L 321 101.5 L 319 103.5 L 311 129.5 L 298 162.5 L 296 171.5 L 294 173.5 L 294 177.5 L 292 179.5 L 290 188.5 L 288 190.5 L 286 200.5 L 282 207.5 L 280 217.5 L 278 219.5 L 276 228.5 L 274 230.5 L 274 234.5 L 272 236.5 L 272 240.5 L 270 242.5 L 270 245.5 L 255 284.5 L 253 293.5 L 251 295.5 L 249 304.5 L 247 306.5 L 245 316.5 L 243 318.5 L 241 327.5 L 239 329.5 L 237 339.5 L 235 341.5 L 233 350.5 L 231 352.5 L 231 356.5 L 229 358.5 L 225 373.5 L 223 375.5 L 223 378.5 L 212 406.5 L 212 409.5 L 210 411.5 L 210 415.5 L 208 417.5 L 206 426.5 L 204 428.5 L 204 432 L 187 425.5 Q 186.3 421.3 189 420.5 L 189 416.5 L 191 414.5 L 191 410.5 L 193 408.5 L 201 382.5 L 214 349.5 L 216 340.5 L 218 338.5 L 218 334.5 L 220 332.5 L 222 323.5 L 224 321.5 L 226 311.5 L 228 309.5 L 230 300.5 L 232 298.5 L 232 294.5 L 234 292.5 L 236 283.5 L 238 281.5 L 238 277.5 L 240 275.5 L 240 271.5 L 242 269.5 L 242 266.5 L 246 258.5 L 246 255.5 L 257 227.5 L 259 218.5 L 261 216.5 L 263 207.5 L 265 205.5 L 267 195.5 L 269 193.5 L 271 184.5 L 273 182.5 L 275 172.5 L 277 170.5 L 279 161.5 L 281 159.5 L 281 155.5 L 283 153.5 L 287 138.5 L 289 136.5 L 289 133.5 L 300 105.5 L 300 102.5 L 302 100.5 L 302 96.5 L 304 94.5 L 306 85.5 L 308 83.5 L 308 80 Z " /><path fill="rgb(0,0,0)" stroke="rgb(0,0,0)" stroke-width="1" opacity="0.996078431372549" d="M 101.5 138 L 110 144 Q 108.9 146.7 111.5 146 L 116 150.5 L 112 154.5 L 108 161 Q 105.3 159.9 106 162.5 L 81 191.5 L 79 196 Q 76.3 194.9 77 197.5 Q 71 201.4 69 208 Q 66.3 206.9 67 209.5 L 63 215 Q 60.3 213.9 61 216.5 L 38 245 Q 35.3 243.9 36 246.5 L 28 256.5 L 36 267 Q 38.7 265.9 38 268.5 L 61 297 Q 63.7 295.9 63 298.5 L 67 304 Q 69.7 302.9 69 305.5 L 77 316 Q 79.7 314.9 79 317.5 L 106 351 Q 108.7 349.9 108 352.5 L 116 361.5 L 110 366 Q 111.1 368.7 108.5 368 L 101.5 374 L 70 336.5 L 62 325 L 60 325 L 60 323 Q 57.3 324.1 58 321.5 L 29 286 Q 26.3 287.1 27 284.5 L 19 274 Q 16.3 275.1 17 272.5 L 15 269 Q 12.3 270.1 13 267.5 L 5 258.5 L 4 255.5 L 13 243 Q 15.7 244.1 15 241.5 L 17 238 Q 19.7 239.1 19 236.5 Q 25 232.6 27 226 Q 29.7 227.1 29 224.5 L 56 193.5 L 58 189 L 60 189 L 60 187 Q 62.7 188.1 62 185.5 L 101.5 138 Z " /><path fill="rgb(0,0,0)" stroke="rgb(0,0,0)" stroke-width="1" opacity="0.996078431372549" d="M 410.5 138 L 411 140 Q 413.7 138.9 413 141.5 L 452 189 Q 454.7 187.9 454 190.5 L 462 201 Q 464.7 199.9 464 202.5 L 466 206 Q 468.7 204.9 468 207.5 L 483 226 Q 485.7 224.9 485 227.5 L 493 238 Q 495.7 236.9 495 239.5 L 497 243 Q 499.7 241.9 499 244.5 L 503 250 Q 505.7 248.9 505 251.5 L 508 256.5 L 505 262 Q 502.3 260.9 503 263.5 L 499 269 Q 496.3 267.9 497 270.5 L 495 274 Q 492.3 272.9 493 275.5 L 485 286 Q 482.3 284.9 483 287.5 L 468 306 Q 465.3 304.9 466 307.5 L 464 311 Q 461.3 309.9 462 312.5 Q 456 316.4 454 323 Q 451.3 321.9 452 324.5 L 415 367.5 L 413 372 Q 410.3 370.9 411 373.5 L 408.5 372 L 402 368 Q 403.1 365.3 400.5 366 L 396 361.5 L 400 357.5 L 404 351 Q 406.7 352.1 406 349.5 L 441 308.5 L 443 304 Q 445.7 305.1 445 302.5 L 470 273.5 L 474 267 Q 476.7 268.1 476 265.5 L 484 255.5 L 476 245 Q 473.3 246.1 474 243.5 L 445 208 Q 442.3 209.1 443 206.5 L 414 172.5 L 406 161 Q 403.3 162.1 404 159.5 L 396 150.5 L 402 146 Q 400.9 143.3 403.5 144 L 410.5 138 Z " /></svg>